<svg width="24" height="24" viewBox="0 0 24 24" fill="none" xmlns="http://www.w3.org/2000/svg">
  <path d="M12 2C10.9 2 10 2.9 10 4V10.55C9.06 11.25 8.5 12.28 8.5 13.5C8.5 15.43 10.07 17 12 17C13.93 17 15.5 15.43 15.5 13.5C15.5 12.28 14.94 11.25 14 10.55V4C14 2.9 13.1 2 12 2ZM9 4C7.9 4 7 4.9 7 6V8.92C7 10.85 7.5 12.72 8.4 14.4L8.5 14.6C8.8 15.1 9.4 15.4 10 15.4H10.5C11.05 15.4 11.58 15.18 11.97 14.8C12.35 14.4 12.55 13.88 12.55 13.33C12.55 12.23 11.65 11.33 10.55 11.33C10.3 11.33 10.05 11.38 9.83 11.5C9.4 11.77 9.22 12.31 9.5 12.75C9.75 13.1 10.2 13.2 10.55 13.05V13.33C10.55 13.44 10.5 13.55 10.42 13.63C10.33 13.72 10.22 13.77 10.1 13.77H10C9.85 13.77 9.67 13.67 9.6 13.53L9.5 13.33C8.72 11.95 8.32 10.45 8.32 8.92V6C8.32 5.63 8.62 5.33 9 5.33C9.38 5.33 9.68 5.63 9.68 6V10C9.68 10.37 9.97 10.67 10.35 10.67C10.72 10.67 11.02 10.37 11.02 10V4C11.02 3.63 11.32 3.33 11.7 3.33C12.07 3.33 12.37 3.63 12.37 4V10C12.37 10.37 12.67 10.67 13.05 10.67C13.42 10.67 13.72 10.37 13.72 10V6C13.72 5.63 14.02 5.33 14.4 5.33C14.77 5.33 15.07 5.63 15.07 6V8.92C15.07 10.45 14.67 11.95 13.9 13.33L13.8 13.53C13.72 13.67 13.55 13.77 13.4 13.77H13.3C13.17 13.77 13.07 13.72 12.98 13.63C12.9 13.55 12.85 13.44 12.85 13.33V13.05C13.2 13.2 13.65 13.1 13.9 12.75C14.17 12.31 14 11.77 13.57 11.5C13.35 11.38 13.1 11.33 12.85 11.33C11.75 11.33 10.85 12.23 10.85 13.33C10.85 13.88 11.05 14.4 11.43 14.8C11.82 15.18 12.35 15.4 12.9 15.4H13.4C14 15.4 14.6 15.1 14.9 14.6L15 14.4C15.9 12.72 16.4 10.85 16.4 8.92V6C16.4 4.9 15.5 4 14.4 4C14.05 4 13.72 4.1 13.45 4.25C13.17 3.5 12.65 3 12 3C11.35 3 10.83 3.5 10.55 4.25C10.28 4.1 9.95 4 9.6 4H9Z" fill="#C35831"/>
</svg>

